# xmcd CD database file
#
# Track frame offsets:
#	150
#	20057
#	46164
#	57598
#	89480
#	113520
#	131049
#	154136
#	187968
#	207013
#	219362
#	225581
#
# Disc length: 3339 seconds
#
# Revision: 0
# Processed by: cddbd v1.5.2PL0 Copyright (c) Steve Scherf et al.
# Submitted via: CDex 1.70beta2
#
DISCID=9f0d090c
DTITLE=Jasper van t Hof - Tomorrowland
DYEAR=1900
DGENRE=Jazz
TTITLE0=Whoozit
TTITLE1=Tomorrow Land
TTITLE2=Rutherford
TTITLE3=Wildcard
TTITLE4=Pllansberg
TTITLE5=Ascot
TTITLE6=Mr. Woof
TTITLE7=Round About
TTITLE8=Ma Belle
TTITLE9=Ballad for a lady
TTITLE10=Ventre A Terre
TTITLE11=The Quiet American
EXTD=
EXTT0=
EXTT1=
EXTT2=
EXTT3=
EXTT4=
EXTT5=
EXTT6=
EXTT7=
EXTT8=
EXTT9=
EXTT10=
EXTT11=
PLAYORDER=
